Coordinates
version=1
nRows=34
nColumns=38
inDegrees=no

Units are S.I. units (second, meters, Newtons, ...)
If the header above contains a line with 'inDegrees', this indicates whether rotational values are in degrees (yes) or radians (no).

endheader
time	pelvis_tilt	pelvis_list	pelvis_rotation	pelvis_tx	pelvis_ty	pelvis_tz	hip_flexion_r	hip_adduction_r	hip_rotation_r	knee_angle_r	ankle_angle_r	subtalar_angle_r	mtp_angle_r	hip_flexion_l	hip_adduction_l	hip_rotation_l	knee_angle_l	ankle_angle_l	subtalar_angle_l	mtp_angle_l	lumbar_extension	lumbar_bending	lumbar_rotation	arm_flex_r	arm_add_r	arm_rot_r	elbow_flex_r	pro_sup_r	wrist_flex_r	wrist_dev_r	arm_flex_l	arm_add_l	arm_rot_l	elbow_flex_l	pro_sup_l	wrist_flex_l	wrist_dev_l
20.74	3.05596	1.29388	-1.31092	0.694535	-0.187926	0.954897	-0.323832	0.0680912	-0.0245016	0.176749	-0.243066	0	0	-0.163144	-0.146712	-0.0340047	0.500021	-0.134405	0	0	-0.357764	0.042505	-0.0307026	0.871308	-0.409849	0.755174	1.22014	1.5708	0	0	0.854952	-0.296556	0.653633	0.977595	1.5708	0	0
20.75	3.05814	1.29722	-1.30941	0.694641	-0.188107	0.954621	-0.320624	0.0681784	-0.0230493	0.176817	-0.241498	0	0	-0.152269	-0.146129	-0.032057	0.511632	-0.13144	0	0	-0.353816	0.0412256	-0.032916	0.865583	-0.418115	0.746065	1.22887	1.5708	0	0	0.85375	-0.295712	0.655732	0.980025	1.5708	0	0
20.76	3.05983	1.3003	-1.30828	0.694589	-0.18825	0.954428	-0.31712	0.0679235	-0.0204031	0.17825	-0.239728	0	0	-0.143996	-0.144626	-0.030188	0.518977	-0.127588	0	0	-0.350318	0.0402754	-0.0340971	0.858707	-0.426489	0.735096	1.23562	1.5708	0	0	0.852926	-0.293928	0.658575	0.980856	1.5708	0	0
20.77	3.06186	1.30296	-1.30846	0.69444	-0.188296	0.954309	-0.31398	0.0672494	-0.0169937	0.180279	-0.23767	0	0	-0.138544	-0.142167	-0.0281793	0.521817	-0.122515	0	0	-0.347289	0.0391828	-0.0344025	0.851092	-0.434799	0.722936	1.24066	1.5708	0	0	0.852393	-0.291433	0.662131	0.980245	1.5708	0	0
20.78	3.06402	1.30558	-1.30913	0.694248	-0.188248	0.954226	-0.310874	0.066426	-0.0132907	0.182563	-0.235115	0	0	-0.134721	-0.139075	-0.0253757	0.521025	-0.116623	0	0	-0.344289	0.0376023	-0.0342613	0.842783	-0.443539	0.709557	1.245	1.5708	0	0	0.852717	-0.288486	0.667595	0.977985	1.5708	0	0
20.79	3.06489	1.30815	-1.30876	0.694003	-0.188137	0.954162	-0.307574	0.0657892	-0.0110625	0.185036	-0.232635	0	0	-0.131941	-0.136041	-0.0220039	0.517104	-0.111593	0	0	-0.341149	0.035971	-0.0337823	0.834413	-0.453263	0.695561	1.24836	1.5708	0	0	0.85415	-0.285872	0.67589	0.974787	1.5708	0	0
20.8	3.06298	1.31052	-1.306	0.693667	-0.187964	0.954065	-0.304122	0.0657746	-0.00851353	0.18788	-0.230544	0	0	-0.130015	-0.133718	-0.0192182	0.511009	-0.109366	0	0	-0.33783	0.0353106	-0.0332347	0.826478	-0.463194	0.681663	1.25027	1.5708	0	0	0.856152	-0.284731	0.686061	0.972145	1.5708	0	0
20.81	3.05947	1.31262	-1.30152	0.693177	-0.1878	0.953966	-0.300534	0.0660462	-0.00580874	0.191491	-0.22852	0	0	-0.128769	-0.131647	-0.0164924	0.503438	-0.110315	0	0	-0.33484	0.0354265	-0.0328922	0.818384	-0.473244	0.666691	1.2515	1.5708	0	0	0.858454	-0.284062	0.695876	0.970108	1.5708	0	0
20.82	3.05528	1.31474	-1.29625	0.692586	-0.187626	0.953806	-0.296914	0.066233	-0.00355081	0.195039	-0.226487	0	0	-0.127665	-0.129573	-0.0142118	0.496041	-0.114777	0	0	-0.331933	0.0357716	-0.0329378	0.809948	-0.48282	0.649935	1.25179	1.5708	0	0	0.860086	-0.283106	0.702652	0.96824	1.5708	0	0
20.83	3.05497	1.31631	-1.29404	0.691829	-0.187379	0.953576	-0.294517	0.0655768	-0.0040011	0.197706	-0.224754	0	0	-0.127333	-0.126732	-0.0126565	0.490424	-0.120473	0	0	-0.329626	0.0356141	-0.0349738	0.802829	-0.491292	0.633564	1.2496	1.5708	0	0	0.860421	-0.282344	0.705362	0.966688	1.5708	0	0
20.84	3.05362	1.31789	-1.29057	0.690987	-0.187092	0.953329	-0.291871	0.0651461	-0.0054412	0.20084	-0.222935	0	0	-0.127287	-0.124582	-0.0120999	0.485699	-0.125838	0	0	-0.327458	0.0356328	-0.0374369	0.795183	-0.499041	0.61462	1.24597	1.5708	0	0	0.860746	-0.281427	0.706979	0.96481	1.5708	0	0
20.85	3.05018	1.31918	-1.28484	0.690035	-0.186802	0.953083	-0.289069	0.0653221	-0.00676129	0.204888	-0.221057	0	0	-0.127695	-0.123711	-0.0125887	0.482017	-0.128369	0	0	-0.325769	0.0362114	-0.0403882	0.787521	-0.506149	0.594075	1.241	1.5708	0	0	0.86139	-0.281165	0.708835	0.963426	1.5708	0	0
20.86	3.04566	1.32049	-1.27807	0.689036	-0.186488	0.952796	-0.286288	0.0657507	-0.00839994	0.208726	-0.219297	0	0	-0.128511	-0.123386	-0.0130595	0.478184	-0.129161	0	0	-0.324129	0.0368106	-0.0437359	0.779986	-0.512609	0.572801	1.23467	1.5708	0	0	0.862553	-0.281588	0.7116	0.962514	1.5708	0	0
20.87	3.04073	1.32203	-1.27117	0.688019	-0.186139	0.952506	-0.283097	0.0660836	-0.00951355	0.213313	-0.216686	0	0	-0.129956	-0.122961	-0.0127492	0.472602	-0.130062	0	0	-0.322516	0.0368995	-0.0467648	0.771206	-0.518316	0.548842	1.22764	1.5708	0	0	0.86519	-0.282818	0.717632	0.961727	1.5708	0	0
20.88	3.0373	1.32302	-1.26605	0.686931	-0.185716	0.952295	-0.281292	0.0661036	-0.0121486	0.216158	-0.214043	0	0	-0.133	-0.122228	-0.0121511	0.465023	-0.131392	0	0	-0.321549	0.0365204	-0.049672	0.763443	-0.524642	0.527222	1.21947	1.5708	0	0	0.86857	-0.28468	0.725996	0.961006	1.5708	0	0
20.89	3.03546	1.3235	-1.26336	0.685822	-0.18532	0.952188	-0.280272	0.0655855	-0.0132922	0.218844	-0.212041	0	0	-0.136975	-0.121259	-0.0116732	0.456964	-0.132859	0	0	-0.321462	0.0357139	-0.0526203	0.758218	-0.531443	0.510737	1.20973	1.5708	0	0	0.872066	-0.287234	0.734464	0.960471	1.5708	0	0
20.9	3.03585	1.32492	-1.26321	0.684701	-0.184852	0.952145	-0.278905	0.0641897	-0.0138448	0.22073	-0.210708	0	0	-0.140116	-0.119472	-0.0107805	0.449019	-0.1348	0	0	-0.32109	0.0327738	-0.0549451	0.751761	-0.539665	0.495309	1.20029	1.5708	0	0	0.876605	-0.28939	0.744694	0.959718	1.5708	0	0
20.91	3.03924	1.3253	-1.26635	0.683551	-0.184412	0.952174	-0.279271	0.0623326	-0.0144359	0.221447	-0.209972	0	0	-0.144341	-0.117451	-0.010574	0.44207	-0.136495	0	0	-0.321537	0.0296847	-0.0584281	0.748055	-0.546441	0.484645	1.18751	1.5708	0	0	0.881331	-0.293056	0.755579	0.958543	1.5708	0	0
20.92	3.04412	1.32529	-1.27137	0.682423	-0.184013	0.952315	-0.280298	0.0600816	-0.0163264	0.221146	-0.210254	0	0	-0.149152	-0.115231	-0.0107439	0.434908	-0.138685	0	0	-0.322821	0.0262182	-0.0620815	0.74539	-0.552313	0.476175	1.17324	1.5708	0	0	0.886811	-0.297854	0.767778	0.957823	1.5708	0	0
20.93	3.04879	1.32545	-1.27672	0.681236	-0.183674	0.952487	-0.281148	0.0575062	-0.0175432	0.22062	-0.211187	0	0	-0.153564	-0.112875	-0.0114196	0.428039	-0.140982	0	0	-0.324285	0.0232146	-0.0658397	0.743756	-0.556929	0.469666	1.15796	1.5708	0	0	0.891617	-0.302732	0.777815	0.957536	1.5708	0	0
20.94	3.05157	1.32619	-1.28069	0.680073	-0.183301	0.952616	-0.281292	0.0551395	-0.0166962	0.220313	-0.211784	0	0	-0.15703	-0.11081	-0.0121577	0.421671	-0.142931	0	0	-0.325244	0.0207793	-0.0693831	0.742166	-0.560447	0.46471	1.14272	1.5708	0	0	0.895048	-0.307352	0.784633	0.95805	1.5708	0	0
20.95	3.05295	1.32711	-1.28349	0.6789	-0.182841	0.952698	-0.281574	0.0529886	-0.0160577	0.219073	-0.212411	0	0	-0.160077	-0.108941	-0.0125194	0.415709	-0.144806	0	0	-0.325732	0.0189024	-0.0727795	0.740714	-0.562916	0.462003	1.12699	1.5708	0	0	0.897615	-0.311985	0.790182	0.959361	1.5708	0	0
20.96	3.05279	1.32799	-1.28522	0.677666	-0.182333	0.95275	-0.281975	0.0509204	-0.0164373	0.217373	-0.213472	0	0	-0.162992	-0.10708	-0.0128046	0.410163	-0.146279	0	0	-0.325788	0.0180126	-0.0756674	0.739385	-0.564741	0.461823	1.11105	1.5708	0	0	0.899398	-0.315984	0.794658	0.960843	1.5708	0	0
20.97	3.05273	1.3285	-1.28723	0.676366	-0.181877	0.952848	-0.282629	0.0486562	-0.0164112	0.216164	-0.214786	0	0	-0.166188	-0.104715	-0.0121578	0.404911	-0.147493	0	0	-0.326099	0.0180431	-0.0778701	0.738691	-0.566628	0.465022	1.09555	1.5708	0	0	0.900646	-0.318852	0.798122	0.962263	1.5708	0	0
20.98	3.05208	1.32875	-1.28921	0.675054	-0.181413	0.952933	-0.283636	0.0464587	-0.0159608	0.214679	-0.216229	0	0	-0.169702	-0.102134	-0.0115115	0.400033	-0.148184	0	0	-0.326455	0.0190314	-0.0793947	0.740374	-0.568778	0.473446	1.0833	1.5708	0	0	0.900433	-0.321632	0.799627	0.965117	1.5708	0	0
20.99	3.01299	1.35065	-1.25639	0.673349	-0.179909	0.952152	-0.258313	0.0450838	-0.00793257	0.217566	-0.21783	0	0	-0.148981	-0.0999312	-0.00931694	0.396204	-0.148743	0	0	-0.299033	0.0310076	-0.0860557	0.748089	-0.564994	0.496312	1.07881	1.5708	0	0	0.834531	-0.310705	0.618045	1.02958	1.5708	0	0
21	3.00676	1.35203	-1.25407	0.672139	-0.179324	0.952095	-0.25743	0.0434428	-0.00768994	0.216844	-0.218215	0	0	-0.151056	-0.0980381	-0.00993967	0.392226	-0.148135	0	0	-0.297765	0.0328624	-0.0880226	0.750273	-0.565933	0.504869	1.08796	1.5708	0	0	0.827698	-0.315387	0.610343	1.03889	1.5708	0	0
21.01	3.00009	1.35278	-1.2517	0.670987	-0.178781	0.952051	-0.257007	0.0420422	-0.00765768	0.21618	-0.218809	0	0	-0.153708	-0.0964251	-0.0106729	0.388425	-0.14787	0	0	-0.296667	0.034398	-0.0887152	0.749542	-0.565468	0.507832	1.09995	1.5708	0	0	0.823023	-0.319241	0.60618	1.04501	1.5708	0	0
21.02	2.99296	1.35355	-1.24951	0.669892	-0.178237	0.952006	-0.256411	0.0405837	-0.0070684	0.215527	-0.219713	0	0	-0.156648	-0.094772	-0.01151	0.383863	-0.147463	0	0	-0.296121	0.0358565	-0.0882173	0.747102	-0.565064	0.508429	1.11138	1.5708	0	0	0.818401	-0.322713	0.601374	1.05153	1.5708	0	0
21.03	2.9856	1.35406	-1.24758	0.668865	-0.177751	0.951983	-0.255716	0.0390487	-0.005489	0.215201	-0.220693	0	0	-0.159854	-0.0931809	-0.0119678	0.379236	-0.147008	0	0	-0.296301	0.0372414	-0.086315	0.74455	-0.564528	0.507428	1.11865	1.5708	0	0	0.814173	-0.325351	0.596142	1.05777	1.5708	0	0
21.04	2.97954	1.35415	-1.24744	0.66791	-0.177315	0.951986	-0.255421	0.0372244	-0.00404524	0.214497	-0.222249	0	0	-0.163743	-0.091407	-0.0125318	0.373908	-0.146695	0	0	-0.297532	0.0385526	-0.0833985	0.743131	-0.563528	0.505191	1.12268	1.5708	0	0	0.809847	-0.327308	0.589504	1.06422	1.5708	0	0
21.05	2.9737	1.35386	-1.24735	0.666992	-0.176947	0.952014	-0.255324	0.0357371	-0.00319988	0.213954	-0.223979	0	0	-0.16749	-0.0899438	-0.0132572	0.369525	-0.146638	0	0	-0.299007	0.0397389	-0.0800896	0.743307	-0.562445	0.50382	1.12425	1.5708	0	0	0.806303	-0.328519	0.583366	1.06874	1.5708	0	0
21.06	2.96793	1.35335	-1.24712	0.666098	-0.176619	0.952079	-0.25541	0.0341565	-0.00242027	0.21344	-0.226104	0	0	-0.171302	-0.0886804	-0.0138566	0.365133	-0.14686	0	0	-0.300614	0.0408298	-0.0768284	0.74431	-0.560837	0.503123	1.12511	1.5708	0	0	0.803098	-0.329723	0.577151	1.07236	1.5708	0	0
21.07	2.96211	1.35335	-1.24657	0.665275	-0.176309	0.952072	-0.254873	0.032288	-0.00251132	0.212734	-0.227696	0	0	-0.174145	-0.0874283	-0.014066	0.361779	-0.146907	0	0	-0.301389	0.0414397	-0.0736578	0.745284	-0.558883	0.502811	1.12613	1.5708	0	0	0.801133	-0.331066	0.572768	1.07464	1.5708	0	0
